{
  "accessors": [
    {
      "bufferView": 2,
      "componentType": 5126,
      "count": 31273,
      "max": [
        0.5214319825172424,
        -0.694487988948822,
        2.585726022720337
      ],
      "min": [
        -0.5167819857597351,
        -0.7953770160675049,
        -0.0009820000268518925
      ],
      "type": "VEC3"
    },
    {
      "bufferView": 2,
      "byteOffset": 375276,
      "componentType": 5126,
      "count": 31273,
      "max": [
        0.9999992847442627,
        0.9999996423721313,
        0.9999923706054688
      ],
      "min": [
        -0.9999996423721313,
        -0.9999997615814209,
        -0.9999958276748657
      ],
      "type": "VEC3"
    },
    {
      "bufferView": 3,
      "componentType": 5126,
      "count": 31273,
      "max": [
        1.0,
        0.9999996423721313,
        0.9999011754989624,
        1.0
      ],
      "min": [
        -0.9999995231628418,
        -0.9999998807907104,
        -0.9995911717414856,
        -1.0
      ],
      "type": "VEC4"
    },
    {
      "bufferView": 1,
      "componentType": 5126,
      "count": 31273,
      "max": [
        0.9594119787216187,
        0.9246349930763245
      ],
      "min": [
        0.0031679999083280563,
        0.0009749999735504389
      ],
      "type": "VEC2"
    },
    {
      "bufferView": 0,
      "componentType": 5125,
      "count": 163782,
      "type": "SCALAR"
    },
    {
      "bufferView": 2,
      "byteOffset": 750552,
      "componentType": 5126,
      "count": 31868,
      "max": [
        0.513679027557373,
        0.7826600074768066,
        2.583530902862549
      ],
      "min": [
        -0.5225449800491333,
        0.6843129992485046,
        -0.0010349999647587538
      ],
      "type": "VEC3"
    },
    {
      "bufferView": 2,
      "byteOffset": 1132968,
      "componentType": 5126,
      "count": 31868,
      "max": [
        1.0,
        0.9999997615814209,
        0.9999964237213135
      ],
      "min": [
        -0.9999997615814209,
        -0.9999996423721313,
        -0.9999998807907104
      ],
      "type": "VEC3"
    },
    {
      "bufferView": 3,
      "byteOffset": 500368,
      "componentType": 5126,
      "count": 31868,
      "max": [
        0.9999989867210388,
        0.9999988079071045,
        0.9999944567680359,
        1.0
      ],
      "min": [
        -0.9999977946281433,
        -0.9999985694885254,
        -0.9999974966049194,
        -1.0
      ],
      "type": "VEC4"
    },
    {
      "bufferView": 1,
      "byteOffset": 250184,
      "componentType": 5126,
      "count": 31868,
      "max": [
        0.9897559881210327,
        0.9003350138664246
      ],
      "min": [
        0.0009749999735504389,
        0.0009749999735504389
      ],
      "type": "VEC2"
    },
    {
      "bufferView": 0,
      "byteOffset": 655128,
      "componentType": 5125,
      "count": 166266,
      "type": "SCALAR"
    },
    {
      "bufferView": 2,
      "byteOffset": 1515384,
      "componentType": 5126,
      "count": 9233,
      "max": [
        0.4629589915275574,
        0.7373800277709961,
        2.389177083969116
      ],
      "min": [
        0.38171300292015076,
        -0.735480010509491,
        2.1359310150146484
      ],
      "type": "VEC3"
    },
    {
      "bufferView": 2,
      "byteOffset": 1626180,
      "componentType": 5126,
      "count": 9233,
      "max": [
        0.9999998807907104,
        0.9999983310699463,
        0.9999997615814209
      ],
      "min": [
        -0.9999979734420776,
        -0.9999828338623047,
        -0.9999992847442627
      ],
      "type": "VEC3"
    },
    {
      "bufferView": 3,
      "byteOffset": 1010256,
      "componentType": 5126,
      "count": 9233,
      "max": [
        0.9999993443489075,
        0.9999999403953552,
        0.9999992251396179,
        1.0
      ],
      "min": [
        -0.9999548196792603,
        -0.9999997019767761,
        -0.9999998211860657,
        -1.0
      ],
      "type": "VEC4"
    },
    {
      "bufferView": 1,
      "byteOffset": 505128,
      "componentType": 5126,
      "count": 9233,
      "max": [
        0.9895889759063721,
        0.9637159705162048
      ],
      "min": [
        0.016568999737501144,
        0.0009749999735504389
      ],
      "type": "VEC2"
    },
    {
      "bufferView": 0,
      "byteOffset": 1320192,
      "componentType": 5125,
      "count": 45300,
      "type": "SCALAR"
    },
    {
      "bufferView": 2,
      "byteOffset": 1736976,
      "componentType": 5126,
      "count": 9629,
      "max": [
        0.4590170085430145,
        0.7388229966163635,
        1.3482489585876465
      ],
      "min": [
        0.38669899106025696,
        -0.7348840236663818,
        1.0939470529556274
      ],
      "type": "VEC3"
    },
    {
      "bufferView": 2,
      "byteOffset": 1852524,
      "componentType": 5126,
      "count": 9629,
      "max": [
        0.9999998807907104,
        0.9999814033508301,
        1.0
      ],
      "min": [
        -0.9999995231628418,
        -0.9999958276748657,
        -0.9999996423721313
      ],
      "type": "VEC3"
    },
    {
      "bufferView": 3,
      "byteOffset": 1157984,
      "componentType": 5126,
      "count": 9629,
      "max": [
        0.9999985694885254,
        0.9999999403953552,
        0.9999988675117493,
        1.0
      ],
      "min": [
        -0.9999983906745911,
        -0.9999945759773254,
        -0.9999988675117493,
        -1.0
      ],
      "type": "VEC4"
    },
    {
      "bufferView": 1,
      "byteOffset": 578992,
      "componentType": 5126,
      "count": 9629,
      "max": [
        0.9971359968185425,
        0.9703009724617004
      ],
      "min": [
        0.046052999794483185,
        0.038499001413583755
      ],
      "type": "VEC2"
    },
    {
      "bufferView": 0,
      "byteOffset": 1501392,
      "componentType": 5125,
      "count": 49080,
      "type": "SCALAR"
    },
    {
      "bufferView": 2,
      "byteOffset": 1968072,
      "componentType": 5126,
      "count": 11378,
      "max": [
        0.45561400055885315,
        0.7323219776153564,
        0.40678998827934265
      ],
      "min": [
        0.3916339874267578,
        -0.7392820119857788,
        0.15298700332641602
      ],
      "type": "VEC3"
    },
    {
      "bufferView": 2,
      "byteOffset": 2104608,
      "componentType": 5126,
      "count": 11378,
      "max": [
        0.9999997615814209,
        1.0,
        0.9999998807907104
      ],
      "min": [
        -0.9999996423721313,
        -0.9999926090240479,
        -0.9999998807907104
      ],
      "type": "VEC3"
    },
    {
      "bufferView": 3,
      "byteOffset": 1312048,
      "componentType": 5126,
      "count": 11378,
      "max": [
        0.9999995827674866,
        0.9998964071273804,
        0.9999994039535522,
        1.0
      ],
      "min": [
        -0.9999998807907104,
        -0.9999998211860657,
        -0.9999991655349731,
        -1.0
      ],
      "type": "VEC4"
    },
    {
      "bufferView": 1,
      "byteOffset": 656024,
      "componentType": 5126,
      "count": 11378,
      "max": [
        0.9853559732437134,
        0.9453129768371582
      ],
      "min": [
        0.05238800123333931,
        0.0009749999735504389
      ],
      "type": "VEC2"
    },
    {
      "bufferView": 0,
      "byteOffset": 1697712,
      "componentType": 5125,
      "count": 60264,
      "type": "SCALAR"
    },
    {
      "bufferView": 2,
      "byteOffset": 2241144,
      "componentType": 5126,
      "count": 9233,
      "max": [
        -0.38749098777770996,
        0.7295399904251099,
        1.3480819463729858
      ],
      "min": [
        -0.4565240144729614,
        -0.7434409856796265,
        1.0948460102081299
      ],
      "type": "VEC3"
    },
    {
      "bufferView": 2,
      "byteOffset": 2351940,
      "componentType": 5126,
      "count": 9233,
      "max": [
        1.0,
        0.9999831914901733,
        0.9999997615814209
      ],
      "min": [
        -0.9999998807907104,
        -0.9999911785125732,
        -0.9999997615814209
      ],
      "type": "VEC3"
    },
    {
      "bufferView": 3,
      "byteOffset": 1494096,
      "componentType": 5126,
      "count": 9233,
      "max": [
        0.9999990463256836,
        0.9999999403953552,
        0.9999993443489075,
        1.0
      ],
      "min": [
        -0.9999997615814209,
        -0.9999998807907104,
        -0.9999992847442627,
        -1.0
      ],
      "type": "VEC4"
    },
    {
      "bufferView": 1,
      "byteOffset": 747048,
      "componentType": 5126,
      "count": 9233,
      "max": [
        0.9100009799003601,
        0.9683459997177124
      ],
      "min": [
        0.00609199982136488,
        0.0009749999735504389
      ],
      "type": "VEC2"
    },
    {
      "bufferView": 0,
      "byteOffset": 1938768,
      "componentType": 5125,
      "count": 45300,
      "type": "SCALAR"
    },
    {
      "bufferView": 2,
      "byteOffset": 2462736,
      "componentType": 5126,
      "count": 9629,
      "max": [
        -0.38888099789619446,
        0.7240020036697388,
        0.4054099917411804
      ],
      "min": [
        -0.45384299755096436,
        -0.7497280240058899,
        0.15133099257946014
      ],
      "type": "VEC3"
    },
    {
      "bufferView": 2,
      "byteOffset": 2578284,
      "componentType": 5126,
      "count": 9629,
      "max": [
        0.9999998807907104,
        0.9999961853027344,
        0.9999998807907104
      ],
      "min": [
        -0.9999997615814209,
        -0.9999650716781616,
        -0.9999994039535522
      ],
      "type": "VEC3"
    },
    {
      "bufferView": 3,
      "byteOffset": 1641824,
      "componentType": 5126,
      "count": 9629,
      "max": [
        0.9999997615814209,
        0.9999933242797852,
        0.9999990463256836,
        1.0
      ],
      "min": [
        -0.9999841451644897,
        -0.9999997019767761,
        -0.9999990463256836,
        -1.0
      ],
      "type": "VEC4"
    },
    {
      "bufferView": 1,
      "byteOffset": 820912,
      "componentType": 5126,
      "count": 9629,
      "max": [
        0.9090499877929688,
        0.9780979752540588
      ],
      "min": [
        0.0019490000559017062,
        0.0009749999735504389
      ],
      "type": "VEC2"
    },
    {
      "bufferView": 0,
      "byteOffset": 2119968,
      "componentType": 5125,
      "count": 49080,
      "type": "SCALAR"
    },
    {
      "bufferView": 2,
      "byteOffset": 2693832,
      "componentType": 5126,
      "count": 11378,
      "max": [
        -0.38697800040245056,
        0.7356119751930237,
        2.391697883605957
      ],
      "min": [
        -0.4666120111942291,
        -0.7373219728469849,
        2.1362481117248535
      ],
      "type": "VEC3"
    },
    {
      "bufferView": 2,
      "byteOffset": 2830368,
      "componentType": 5126,
      "count": 11378,
      "max": [
        0.9999990463256836,
        0.9999992847442627,
        1.0
      ],
      "min": [
        -0.9999966621398926,
        -0.9999972581863403,
        -0.9999995231628418
      ],
      "type": "VEC3"
    },
    {
      "bufferView": 3,
      "byteOffset": 1795888,
      "componentType": 5126,
      "count": 11378,
      "max": [
        0.9999980330467224,
        0.9999991059303284,
        0.9999995827674866,
        1.0
      ],
      "min": [
        -0.999996542930603,
        -0.9999595880508423,
        -0.9999996423721313,
        -1.0
      ],
      "type": "VEC4"
    },
    {
      "bufferView": 1,
      "byteOffset": 897944,
      "componentType": 5126,
      "count": 11378,
      "max": [
        0.984138011932373,
        0.9745219945907593
      ],
      "min": [
        0.004141999874264002,
        0.0009749999735504389
      ],
      "type": "VEC2"
    },
    {
      "bufferView": 0,
      "byteOffset": 2316288,
      "componentType": 5125,
      "count": 60264,
      "type": "SCALAR"
    }
  ],
  "asset": {
    "extras": {
      "author": "Guay0 (https://sketchfab.com/edhu21)",
      "license": "CC-BY-4.0 (http://creativecommons.org/licenses/by/4.0/)",
      "source": "https://sketchfab.com/3d-models/3d-scan-quixel-megascans-metal-pallet-racking-e0b12a7a746346f4bec44cab45c3ca38",
      "title": "3D scan Quixel Megascans Metal Pallet Racking"
    },
    "generator": "Sketchfab-14.1.2",
    "version": "2.0"
  },
  "bufferViews": [
    {
      "buffer": 0,
      "byteLength": 2557344,
      "name": "floatBufferViews",
      "target": 34963
    },
    {
      "buffer": 0,
      "byteLength": 988968,
      "byteOffset": 2557344,
      "byteStride": 8,
      "name": "floatBufferViews",
      "target": 34962
    },
    {
      "buffer": 0,
      "byteLength": 2966904,
      "byteOffset": 3546312,
      "byteStride": 12,
      "name": "floatBufferViews",
      "target": 34962
    },
    {
      "buffer": 0,
      "byteLength": 1977936,
      "byteOffset": 6513216,
      "byteStride": 16,
      "name": "floatBufferViews",
      "target": 34962
    }
  ],
  "buffers": [
    {
      "byteLength": 8491152,
      "uri": "scene.bin"
    }
  ],
  "images": [
    {
      "uri": "textures/Metal_Pallet_wbslaikga_baseColor.jpeg"
    },
    {
      "uri": "textures/Metal_Pallet_wbslaikga_metallicRoughness.png"
    },
    {
      "uri": "textures/Metal_Pallet_wbslaikga_normal.png"
    }
  ],
  "materials": [
    {
      "doubleSided": true,
      "name": "Metal_Pallet_wbslaikga",
      "normalTexture": {
        "index": 2
      },
      "pbrMetallicRoughness": {
        "baseColorTexture": {
          "index": 0
        },
        "metallicFactor": 0.0,
        "metallicRoughnessTexture": {
          "index": 1
        },
        "roughnessFactor": 0.6
      }
    }
  ],
  "meshes": [
    {
      "name": "Object_0",
      "primitives": [
        {
          "attributes": {
            "NORMAL": 1,
            "POSITION": 0,
            "TANGENT": 2,
            "TEXCOORD_0": 3
          },
          "indices": 4,
          "material": 0,
          "mode": 4
        }
      ]
    },
    {
      "name": "Object_1",
      "primitives": [
        {
          "attributes": {
            "NORMAL": 6,
            "POSITION": 5,
            "TANGENT": 7,
            "TEXCOORD_0": 8
          },
          "indices": 9,
          "material": 0,
          "mode": 4
        }
      ]
    },
    {
      "name": "Object_2",
      "primitives": [
        {
          "attributes": {
            "NORMAL": 11,
            "POSITION": 10,
            "TANGENT": 12,
            "TEXCOORD_0": 13
          },
          "indices": 14,
          "material": 0,
          "mode": 4
        }
      ]
    },
    {
      "name": "Object_3",
      "primitives": [
        {
          "attributes": {
            "NORMAL": 16,
            "POSITION": 15,
            "TANGENT": 17,
            "TEXCOORD_0": 18
          },
          "indices": 19,
          "material": 0,
          "mode": 4
        }
      ]
    },
    {
      "name": "Object_4",
      "primitives": [
        {
          "attributes": {
            "NORMAL": 21,
            "POSITION": 20,
            "TANGENT": 22,
            "TEXCOORD_0": 23
          },
          "indices": 24,
          "material": 0,
          "mode": 4
        }
      ]
    },
    {
      "name": "Object_5",
      "primitives": [
        {
          "attributes": {
            "NORMAL": 26,
            "POSITION": 25,
            "TANGENT": 27,
            "TEXCOORD_0": 28
          },
          "indices": 29,
          "material": 0,
          "mode": 4
        }
      ]
    },
    {
      "name": "Object_6",
      "primitives": [
        {
          "attributes": {
            "NORMAL": 31,
            "POSITION": 30,
            "TANGENT": 32,
            "TEXCOORD_0": 33
          },
          "indices": 34,
          "material": 0,
          "mode": 4
        }
      ]
    },
    {
      "name": "Object_7",
      "primitives": [
        {
          "attributes": {
            "NORMAL": 36,
            "POSITION": 35,
            "TANGENT": 37,
            "TEXCOORD_0": 38
          },
          "indices": 39,
          "material": 0,
          "mode": 4
        }
      ]
    }
  ],
  "nodes": [
    {
      "children": [
        1
      ],
      "matrix": [
        1.0,
        0.0,
        0.0,
        0.0,
        0.0,
        2.220446049250313e-16,
        -1.0,
        0.0,
        0.0,
        1.0,
        2.220446049250313e-16,
        0.0,
        0.0,
        0.0,
        0.0,
        1.0
      ],
      "name": "Sketchfab_model"
    },
    {
      "children": [
        2,
        3,
        4,
        5,
        6,
        7,
        8,
        9
      ],
      "name": "Metal Pallet Racking.obj.cleaner.materialmerger.gles"
    },
    {
      "mesh": 0,
      "name": "Object_2"
    },
    {
      "mesh": 1,
      "name": "Object_3"
    },
    {
      "mesh": 2,
      "name": "Object_4"
    },
    {
      "mesh": 3,
      "name": "Object_5"
    },
    {
      "mesh": 4,
      "name": "Object_6"
    },
    {
      "mesh": 5,
      "name": "Object_7"
    },
    {
      "mesh": 6,
      "name": "Object_8"
    },
    {
      "mesh": 7,
      "name": "Object_9"
    }
  ],
  "samplers": [
    {
      "magFilter": 9729,
      "minFilter": 9987,
      "wrapS": 10497,
      "wrapT": 10497
    }
  ],
  "scene": 0,
  "scenes": [
    {
      "name": "Sketchfab_Scene",
      "nodes": [
        0
      ]
    }
  ],
  "textures": [
    {
      "sampler": 0,
      "source": 0
    },
    {
      "sampler": 0,
      "source": 1
    },
    {
      "sampler": 0,
      "source": 2
    }
  ]
}
